
<svg version="1.0" xmlns="http://www.w3.org/2000/svg"
 width="1160.000000pt" height="1160.000000pt" viewBox="0 0 1160.000000 1160.000000"
 preserveAspectRatio="xMidYMid meet">

<g transform="translate(0.000000,1160.000000) scale(0.100000,-0.100000)"
fill="#000000" stroke="none">
<path d="M2401 11589 c-839 -65 -1605 -541 -2033 -1261 -175 -296 -280 -593
-340 -963 l-23 -140 -3 -3315 c-3 -3445 -3 -3507 38 -3748 127 -743 585 -1410
1232 -1794 296 -175 593 -280 963 -340 l140 -23 3315 -3 c3445 -3 3507 -3
3748 38 743 127 1410 585 1794 1232 175 296 280 593 340 963 l23 140 3 3315
c3 3445 3 3507 -38 3748 -127 743 -585 1410 -1232 1794 -296 175 -593 280
-963 340 l-140 23 -3360 1 c-1848 1 -3407 -2 -3464 -7z m3619 -3030 c707 -563
1325 -1062 1374 -1109 195 -187 342 -390 466 -645 108 -221 164 -394 207 -640
25 -145 25 -589 0 -725 -46 -245 -108 -433 -207 -635 -253 -514 -672 -907
-1196 -1120 l-105 -43 485 -415 486 -415 -316 -396 c-173 -218 -318 -396 -322
-396 -4 0 -590 464 -1302 1032 -1387 1105 -1448 1157 -1610 1373 -308 410
-463 874 -463 1385 0 329 55 598 184 898 219 511 628 935 1132 1172 56 26 132
59 170 71 37 13 67 27 67 30 0 4 -220 188 -490 409 -269 221 -492 405 -494
409 -8 12 627 801 639 792 5 -4 588 -469 1295 -1032z m2395 596 c202 -43 394
-168 505 -330 49 -71 106 -201 125 -285 24 -104 22 -272 -3 -370 -64 -243
-236 -448 -460 -547 -144 -64 -363 -82 -514 -44 -145 37 -254 99 -366 205
-111 106 -181 222 -224 372 -29 103 -31 304 -4 404 42 158 154 330 281 432
181 146 439 210 660 163z m-4908 -5121 c398 -82 674 -446 650 -854 -21 -343
-259 -636 -594 -732 -102 -29 -304 -31 -403 -4 -249 68 -456 248 -550 476 -43
105 -61 201 -61 325 1 383 265 709 641 789 88 19 225 19 317 0z"/>
<path d="M5610 7056 c-185 -33 -362 -103 -513 -203 -91 -60 -232 -195 -304
-291 -107 -142 -194 -339 -230 -519 -23 -120 -23 -356 0 -476 87 -437 399
-801 815 -951 255 -91 563 -95 819 -10 381 128 689 437 806 810 45 142 61 247
60 399 -1 337 -119 627 -355 871 -181 188 -389 302 -653 360 -96 21 -350 27
-445 10z"/>
</g>
</svg>
